{
    "asset" : {
        "generator" : "Khronos glTF Blender I/O v1.7.33",
        "version" : "2.0"
    },
    "scene" : 0,
    "scenes" : [
        {
            "name" : "Scene",
            "nodes" : [
                0
            ]
        }
    ],
    "nodes" : [
        {
            "mesh" : 0,
            "name" : "Curve.002",
            "rotation" : [
                0.7071068286895752,
                0,
                0,
                0.7071068286895752
            ],
            "scale" : [
                50,
                50,
                50
            ],
            "translation" : [
                0,
                5.332004547119141,
                0
            ]
        }
    ],
    "materials" : [
        {
            "doubleSided" : true,
            "name" : "Material",
            "pbrMetallicRoughness" : {
                "baseColorFactor" : [
                    0.800000011920929,
                    0.800000011920929,
                    0.800000011920929,
                    1
                ],
                "metallicFactor" : 0,
                "roughnessFactor" : 0.4000000059604645
            }
        },
        {
            "doubleSided" : true,
            "name" : "SVGMat",
            "pbrMetallicRoughness" : {
                "baseColorFactor" : [
                    0.23398080468177795,
                    0.42920592427253723,
                    0.5870106816291809,
                    1
                ],
                "metallicFactor" : 0,
                "roughnessFactor" : 0.4000000059604645
            }
        },
        {
            "doubleSided" : true,
            "name" : "Material.001",
            "pbrMetallicRoughness" : {
                "baseColorFactor" : [
                    0.8000000715255737,
                    0.3434884548187256,
                    0,
                    1
                ],
                "metallicFactor" : 0,
                "roughnessFactor" : 0.5
            }
        }
    ],
    "meshes" : [
        {
            "name" : "Curve.002",
            "primitives" : [
                {
                    "attributes" : {
                        "POSITION" : 0
                    },
                    "indices" : 1,
                    "material" : 0
                },
                {
                    "attributes" : {
                        "POSITION" : 2
                    },
                    "indices" : 3,
                    "material" : 1
                },
                {
                    "attributes" : {
                        "POSITION" : 4
                    },
                    "indices" : 5,
                    "material" : 2
                }
            ]
        }
    ],
    "accessors" : [
        {
            "bufferView" : 0,
            "componentType" : 5126,
            "count" : 2240,
            "max" : [
                0.09519349038600922,
                0.010999999940395355,
                0.10398414731025696
            ],
            "min" : [
                -0.10296393185853958,
                -0.010999999940395355,
                -0.06592360138893127
            ],
            "type" : "VEC3"
        },
        {
            "bufferView" : 1,
            "componentType" : 5123,
            "count" : 11508,
            "type" : "SCALAR"
        },
        {
            "bufferView" : 2,
            "componentType" : 5126,
            "count" : 644,
            "max" : [
                0.11623956263065338,
                0.009999999776482582,
                -0.058568134903907776
            ],
            "min" : [
                -0.12400992214679718,
                -0.009999999776482582,
                -0.24040211737155914
            ],
            "type" : "VEC3"
        },
        {
            "bufferView" : 3,
            "componentType" : 5123,
            "count" : 1920,
            "type" : "SCALAR"
        },
        {
            "bufferView" : 4,
            "componentType" : 5126,
            "count" : 1344,
            "max" : [
                0.036726053804159164,
                0.013000000268220901,
                -0.07926620543003082
            ],
            "min" : [
                -0.0444960743188858,
                -0.013000000268220901,
                -0.16047242283821106
            ],
            "type" : "VEC3"
        },
        {
            "bufferView" : 5,
            "componentType" : 5123,
            "count" : 6900,
            "type" : "SCALAR"
        }
    ],
    "bufferViews" : [
        {
            "buffer" : 0,
            "byteLength" : 26880,
            "byteOffset" : 0
        },
        {
            "buffer" : 0,
            "byteLength" : 23016,
            "byteOffset" : 26880
        },
        {
            "buffer" : 0,
            "byteLength" : 7728,
            "byteOffset" : 49896
        },
        {
            "buffer" : 0,
            "byteLength" : 3840,
            "byteOffset" : 57624
        },
        {
            "buffer" : 0,
            "byteLength" : 16128,
            "byteOffset" : 61464
        },
        {
            "buffer" : 0,
            "byteLength" : 13800,
            "byteOffset" : 77592
        }
    ],
    "buffers" : [
        {
            "byteLength" : 91392,
            "uri" : "data:application/octet-stream;base64,"
        }
    ]
}
